Coordinates
version=1
nRows=8
nColumns=42
inDegrees=yes

Units are S.I. units (second, meters, Newtons, ...)
If the header above contains a line with 'inDegrees', this indicates whether rotational values are in degrees (yes) or radians (no).

endheader
time	pelvis_tilt	pelvis_list	pelvis_rotation	pelvis_tx	pelvis_ty	pelvis_tz	hip_flexion_r	hip_adduction_r	hip_rotation_r	knee_angle_r	knee_adduction_r	knee_angle_r_beta	ankle_angle_r	subtalar_angle_r	mtp_angle_r	hip_flexion_l	hip_adduction_l	hip_rotation_l	knee_angle_l	knee_adduction_l	knee_angle_l_beta	ankle_angle_l	subtalar_angle_l	mtp_angle_l	lumbar_extension	lumbar_bending	lumbar_rotation	arm_flex_r	arm_add_r	arm_rot_r	elbow_flex_r	pro_sup_r	wrist_flex_r	wrist_dev_r	arm_flex_l	arm_add_l	arm_rot_l	elbow_flex_l	pro_sup_l	wrist_flex_l	wrist_dev_l
      2.15000000	     20.11296231	     -1.16725380	      4.21120175	      0.42517975	      0.94385746	     -0.34759460	    -10.02838034	      3.47714099	    -23.93353568	     20.43160482	     -4.06368680	      0.35659878	     11.78667566	     35.36607689	     -7.51828913	    -23.45807206	     -0.18361795	     -5.53503216	     44.79800980	      6.72133004	      0.78187277	     11.32598547	     -9.28277287	     -7.51828913	    -34.40930954	     -1.09422601	     -0.30005529	      7.15408140	     -8.84832970	    -36.52457657	     22.79243513	     90.00000001	      0.00000000	      0.00000000	      0.54562829	    -21.00620680	      6.37836020	     71.61895324	     90.00000001	      0.00000000	      0.00000000
      2.16000000	     19.95539592	     -1.23922551	      4.39655814	      0.42987109	      0.94402253	     -0.34864221	    -10.28321658	      3.54870545	    -23.66941810	     20.27218366	     -3.84841626	      0.35381635	     12.01440796	     35.04906972	     -7.51784499	    -21.90897419	     -0.83255732	     -5.82752311	     47.23159346	      6.63431319	      0.82434682	     11.08413180	    -10.76049305	     -7.51784499	    -34.27725026	     -0.99884070	     -0.30887407	      7.64105383	     -8.86752730	    -35.58489411	     23.34380077	     90.00000001	      0.00000000	      0.00000000	      0.65580788	    -21.00656523	      6.37057766	     71.86765033	     90.00000001	      0.00000000	      0.00000000
      2.17000000	     19.76448767	     -1.33895205	      4.57006274	      0.43458254	      0.94402886	     -0.34974754	    -10.44518957	      3.70324583	    -23.24847396	     20.20021729	     -3.78978139	      0.35256030	     12.23395785	     34.48809586	     -7.51731646	    -20.29472621	     -1.53548003	     -6.23536096	     49.44600960	      6.51609433	      0.86299567	     10.89842447	    -12.42886938	     -7.51731646	    -34.09515922	     -0.86226418	     -0.25652550	      8.02205686	     -8.99937491	    -34.27929126	     23.99849315	     90.00000001	      0.00000000	      0.00000000	      0.80971565	    -20.96642756	      6.35348850	     72.08852045	     90.00000001	      0.00000000	      0.00000000
      2.18000000	     19.72248162	     -1.38044630	      4.71789956	      0.43920711	      0.94433628	     -0.35096228	    -10.87737606	      3.73215570	    -22.44219197	     19.99789969	     -3.35972361	      0.34902919	     12.42218839	     33.32351036	     -7.51494350	    -18.90412363	     -2.09741752	     -6.41740687	     51.14494220	      6.35975917	      0.89264764	     10.78523413	    -14.23115994	     -7.51494350	    -34.11956787	     -0.79039111	     -0.21761974	      7.61278269	     -9.51788466	    -28.26565025	     25.70737504	     90.00000001	      0.00000000	      0.00000000	      0.96559594	    -20.94917914	      6.36101758	     72.31281852	     90.00000001	      0.00000000	      0.00000000
      2.19000000	     19.78285846	     -1.24707632	      4.87123953	      0.44399875	      0.94483139	     -0.35233158	    -11.42016605	      3.54748409	    -22.15072509	     19.83839759	     -3.09007167	      0.34624536	     12.66506393	     33.15420760	     -7.51475335	    -17.67650217	     -2.39868015	     -6.76325957	     52.35917115	      5.82181413	      0.91383993	     11.34517515	    -14.98679220	     -7.51475335	    -34.23048267	     -0.86729183	     -0.24814657	      8.24285722	     -9.54737509	    -28.06180826	     26.19687797	     90.00000001	      0.00000000	      0.00000000	      1.13066327	    -20.95300483	      6.41462951	     72.47636835	     90.00000001	      0.00000000	      0.00000000
      2.20000000	     19.50329331	     -1.48112142	      4.97202493	      0.44845886	      0.94464421	     -0.35319143	    -11.44014505	      3.87818170	    -21.40807576	     19.76635742	     -3.02777850	      0.34498802	     12.90635085	     32.16994689	     -7.51426317	    -15.83269495	     -3.18368771	     -7.47812375	     53.79550148	      5.18925579	      0.93890862	     11.54083071	    -15.97670206	     -7.51426317	    -33.99537922	     -0.67166990	     -0.05595751	      8.74562748	     -9.64983584	    -27.25801748	     26.98439468	     90.00000001	      0.00000000	      0.00000000	      1.28209733	    -20.90567879	      6.47208186	     72.65959899	     90.00000001	      0.00000000	      0.00000000
      2.21000000	     19.54169077	     -1.35260592	      5.09341400	      0.45307785	      0.94513166	     -0.35461980	    -11.96247920	      3.69886773	    -21.01704022	     19.56130085	     -2.75229146	      0.34140911	     13.12482705	     31.78719811	     -7.51406381	    -14.55647409	     -3.42471693	     -7.73395201	     54.35321254	      4.61952738	      0.94864252	     12.26133756	    -16.54998013	     -7.51406381	    -34.11356149	     -0.75199134	     -0.07628330	      9.40457715	     -9.69976624	    -26.84739659	     27.53533121	     90.00000001	      0.00000000	      0.00000000	      1.46114230	    -20.89074804	      6.56310434	     72.78443384	     90.00000001	      0.00000000	      0.00000000
      2.22000000	     19.53227483	     -1.25663388	      5.15210665	      0.45751824	      0.94553955	     -0.35586008	    -12.38287797	      3.58751000	    -20.56853980	     19.38417858	     -2.59476814	      0.33831774	     13.32535150	     31.29336086	     -7.51387193	    -13.17333037	     -3.71872640	     -8.02845906	     54.71431081	      4.09194660	      0.95494487	     12.84461475	    -16.91391462	     -7.51387193	    -34.22390715	     -0.85262537	     -0.01029296	     10.05644340	     -9.77511335	    -26.38210084	     28.15382807	     90.00000001	      0.00000000	      0.00000000	      1.65905881	    -20.89215915	      6.64027273	     72.89778242	     90.00000001	      0.00000000	      0.00000000
